<svg xmlns="http://www.w3.org/2000/svg" width="24" height="24" viewBox="0 0 24 24">
  <path fill="#4285F4" d="M21.35 11.1h-9.17v2.73h6.51c-.33 3.81-3.5 5.44-6.5 5.44C8.36 19.27 5 16.25 5 12c0-4.1 3.2-7.27 7.2-7.27 3.09 0 4.9 1.97 4.9 1.97L19 4.72S16.56 2 12.1 2C6.42 2 2.03 6.8 2.03 12c0 5.05 4.13 10 10.22 10 5.35 0 9.25-3.67 9.25-9.09 0-1.15-.15-1.81-.15-1.81z"/>
  <path fill="#EA4335" d="M6.3 14.7l-.16.23-1.08 2.25-.03.06A9.86 9.86 0 0 1 2.03 12c0-1.76.45-3.43 1.25-4.87l.12-.09L3.5 7l1.04-2.28.04-.03A9.96 9.96 0 0 1 12.1 2c3.5 0 6 1.39 7.37 2.54L18 6.28c-1.1-1.03-2.63-1.55-4.8-1.55-4.1 0-7.2 3.18-7.2 7.27 0 1.08.22 2.14.64 3.09l-.34-.39z"/>
  <path fill="#FBBC05" d="M2.03 12c0-1.76.45-3.43 1.25-4.87l.12-.09L3.5 7l1.04-2.28.04-.03A9.96 9.96 0 0 1 12.1 2v5.27c-4.1 0-7.2 3.18-7.2 7.27 0 1.08.22 2.14.64 3.09l-.34-.39-.16.23-1.08 2.25-.03.06A9.86 9.86 0 0 1 2.03 12z"/>
  <path fill="#34A853" d="M12.1 22c-5.35 0-9.83-4.35-10.03-9.81l.03-.06 1.08-2.25.16-.23.34.39c.42.95 1.15 1.83 2.12 2.47 1.2.83 2.68 1.33 4.3 1.33 1.53 0 2.93-.45 4.06-1.26l.07-.04 3.37 2.61.05.02C16.14 20.21 13.58 22 12.1 22z"/>
  <path fill="#4285F4" d="M21.35 11.1h-9.17v2.73h6.51c-.16 1.8-1.19 3.35-2.53 4.18l-.07.04-3.37-2.61-.05-.02A5.35 5.35 0 0 1 12.1 16.7a5.15 5.15 0 0 1-4.9-3.62l4.9-2.91v-4.9c4.1 0 7.2 3.18 7.2 7.27 0 .38-.08.7-.15 1.04l.15.52z"/>
</svg> 