<?xml version="1.0" encoding="UTF-8"?>
<svg width="18px" height="18px" viewBox="0 0 18 18" version="1.1" xmlns="http://www.w3.org/2000/svg" xmlns:xlink="http://www.w3.org/1999/xlink">
    <g id="Apple" stroke="none" stroke-width="1" fill="none" fill-rule="evenodd">
        <path d="M15.4519,14.0074 C15.0959,14.8854 14.6859,15.6894 14.2199,16.4214 C13.5839,17.4294 13.0559,18.1074 12.6399,18.4554 C11.9919,19.0614 11.2959,19.3734 10.5479,19.3934 C10.0039,19.3934 9.3559,19.2334 8.6079,18.9074 C7.8579,18.5834 7.1679,18.4234 6.5359,18.4234 C5.8719,18.4234 5.1599,18.5834 4.3959,18.9074 C3.6319,19.2334 3.0159,19.4014 2.5439,19.4134 C1.8279,19.4374 1.1119,19.1154 0.3959,18.4454 C-0.0521,18.0674 -0.4921,17.3674 -0.9241,16.3434 C-1.3881,15.2394 -1.6201,14.1794 -1.6201,13.1614 C-1.6201,11.9974 -1.3281,10.9914 -0.7441,10.1454 C-0.2801,9.4734 0.3239,8.9414 1.0679,8.5474 C1.8119,8.1534 2.6119,7.9514 3.4679,7.9394 C4.0519,7.9394 4.8039,8.1234 5.7279,8.4854 C6.6519,8.8494 7.2239,9.0334 7.4399,9.0334 C7.5999,9.0334 8.2719,8.8174 9.4519,8.3874 C10.5639,7.9894 11.4959,7.8214 12.2479,7.8794 C13.9439,8.0214 15.2079,8.7014 16.0359,9.9254 C14.5239,10.8254 13.7759,12.0894 13.7919,13.7134 C13.8079,14.9814 14.2439,16.0334 15.0959,16.8654 C15.4839,17.2474 15.9159,17.5414 16.3959,17.7494 C16.0879,18.1854 15.7679,18.5934 15.4519,14.0074 L15.4519,14.0074 Z M12.3639,0.6654 C12.3639,1.6674 11.9999,2.6094 11.2759,3.4874 C10.4079,4.5174 9.3479,5.1174 8.1839,5.0214 C8.1679,4.9094 8.1599,4.7894 8.1599,4.6614 C8.1599,3.7014 8.5799,2.6814 9.3399,1.8294 C9.7199,1.3974 10.1999,1.0414 10.7799,0.7614 C11.3599,0.4854 11.9079,0.3334 12.4239,0.3094 C12.4399,0.4294 12.3639,0.5494 12.3639,0.6654 L12.3639,0.6654 Z" id="Shape" fill="#000000"></path>
    </g>
</svg> 