<?xml version="1.0" encoding="UTF-8"?>
<svg width="18px" height="18px" viewBox="0 0 18 18" version="1.1" xmlns="http://www.w3.org/2000/svg" xmlns:xlink="http://www.w3.org/1999/xlink">
    <g id="Facebook" stroke="none" stroke-width="1" fill="none" fill-rule="evenodd">
        <path d="M17.0062,0 L0.9938,0 C0.4454,0 0,0.4454 0,0.9938 L0,17.0062 C0,17.5546 0.4454,18 0.9938,18 L9.6127,18 L9.6127,11.0347 L7.2675,11.0347 L7.2675,8.3153 L9.6127,8.3153 L9.6127,6.3195 C9.6127,3.9885 11.0097,2.7198 13.1005,2.7198 C14.0986,2.7198 14.9688,2.7945 15.2069,2.8277 L15.2069,5.2523 L13.7734,5.2532 C12.6525,5.2532 12.4256,5.7798 12.4256,6.5595 L12.4256,8.3153 L15.1179,8.3153 L14.7742,11.0347 L12.4256,11.0347 L12.4256,18 L17.0062,18 C17.5546,18 18,17.5546 18,17.0062 L18,0.9938 C18,0.4454 17.5546,0 17.0062,0" id="Fill-1" fill="#3B5998"></path>
    </g>
</svg> 